<?xml version="1.0" encoding="utf-8"?>
<!-- Generator: Adobe Illustrator 23.1.0, SVG Export Plug-In . SVG Version: 6.00 Build 0)  -->
<svg version="1.1" id="Слой_1" xmlns="http://www.w3.org/2000/svg" xmlns:xlink="http://www.w3.org/1999/xlink" x="0px" y="0px"
	 viewBox="0 0 399.5 107.2" style="enable-background:new 0 0 399.5 107.2;" xml:space="preserve">
<style type="text/css">
	.st0{fill:#000108;}
	.st1{enable-background:new    ;}
	.st2{fill-rule:evenodd;clip-rule:evenodd;fill:#000108;}
</style>
<g id="AromaKo">
	<g>
		<path class="st0" d="M162.3,17c-4.1,6.1-8.5,13.2-13.2,21.3c1.2,0.6,2.1,1.2,2.7,1.7c0.6,0.5,0.8,1.1,0.5,1.5
			c-0.3,0.5-0.7,0.5-1.2,0.1c-0.6-0.6-1.6-1.2-2.9-1.9c-1.7,3.1-3.2,5.9-4.4,8.4c-3,6.1-4.5,10.6-4.5,13.6c0,2.5,1.1,3.8,3.4,3.8
			c2.1,0,3.8-0.8,5.2-2.5c0.3-0.4,0.6-0.6,0.8-0.5c0.4,0.1,0.4,0.5-0.2,1.2c-0.5,0.7-1.4,1.5-2.7,2.1c-1.5,0.8-3,1.2-4.3,1.2
			c-0.9,0-1.7-0.2-2.5-0.5c-2.7-1.3-4-3.4-4-6.2c0-2.3,0.7-5.2,2.2-8.7c1.1-2.7,3.7-7.1,7.8-13.3c-3-1.3-6-2.2-8.9-2.9
			c-3.8,4.2-7.6,8.5-11.5,12.8c-4.7,5.1-9,9.1-12.8,11.9c-5,3.7-10.1,6.1-15.2,7.2c-1.4,0.3-2.9,0.5-4.5,0.5c-3.9,0-7.1-0.8-9.7-2.5
			c-3.2-2.1-4.8-5.2-4.9-9.4c-0.1-5.5,3.6-10.6,11-15.1c6.8-4.2,14.6-6.8,23.5-7.9c3.2-0.4,6.4-0.6,9.5-0.6c4.7,0,9.2,0.5,13.5,1.4
			c10.5-10.1,16.8-15.9,18.9-17.3c2.4-1.6,4.4-2.5,6-2.5c1.7,0,2.6,0.6,2.6,1.9C162.9,16,162.7,16.5,162.3,17z M133.9,34.7
			c-3.8-0.8-7.9-1.2-12-1.2c-4.2,0-8.6,0.4-13.2,1.2c-7.2,1.3-13.6,3.8-19.4,7.3c-6.5,4-9.7,8.2-9.7,12.5c0,0.4,0,0.9,0.1,1.4
			c0.8,4.5,4.1,6.8,10.1,6.8c2.6,0,5.2-0.4,8-1.2c4.9-1.4,9.7-3.8,14.3-7.1c3.4-2.3,7.5-5.9,12.4-10.5L133.9,34.7z M161,15.1
			c-0.2-0.1-0.4-0.1-0.7-0.1c-1,0-2.3,0.5-4,1.4c-2.9,1.6-9,7.5-18.6,17.6c3,0.7,5.8,1.7,8.5,2.9c2.8-4.2,6-8.7,9.7-13.5
			c2.7-3.6,4.4-5.8,5.2-6.7C161.6,15.9,161.6,15.4,161,15.1z"/>
		<path class="st0" d="M181.5,52.1c-1.4,1.6-4.2,4.2-8.4,7.5c-5.2,4.2-9.7,6.4-13.4,6.6c-3.5,0.1-5.3-1-5.3-3.3
			c0-2.2,1.5-4.5,4.5-6.9c1.3-1,2.8-2.1,4.4-3.1c1.8-1.1,3.1-1.9,3.8-2.4c2.2-1.6,3.2-3,3-4c-0.1-0.6-0.6-1.1-1.3-1.6
			c-0.8-0.3-1.5-0.7-2.3-1.1c-0.5-0.3-1-0.6-1.4-1c-1.2,1.4-2.9,3.5-5.1,6.2c-2.5,3-4.5,5-5.8,6.2c-0.5,0.4-0.9,0.6-1.2,0.6
			c-0.4,0-0.6-0.2-0.6-0.5s0.2-0.7,0.6-1c0.9-0.7,3-3,6.3-6.8c2.9-3.4,4.5-5.5,4.7-6.3c-0.3-0.7-0.4-1.4-0.3-2.1
			c0.4-1.4,1.1-2.1,2.2-2.1c1.3,0,1.8,0.7,1.6,2.2c-0.1,0.7-0.5,1.4-1.1,2.1c0.1,0.2,0.6,0.6,1.4,1.1c0.9,0.5,1.7,1,2.7,1.5
			c1.1,0.8,1.6,1.8,1.5,3.1c-0.2,1.5-1.5,3.7-4.1,6.5c-2.2,2.4-4.5,4.8-6.7,7.2c-1.2,1.4-1.6,2.6-1.3,3.5c0.1,0.2,0.3,0.3,0.6,0.4
			c0.9,0.2,2.5-0.3,4.8-1.4c2.2-1.1,4.5-2.5,6.9-4.4c3.1-2.4,5.8-4.8,8-7.3c0.3-0.3,0.6-0.5,1-0.5c0.5,0,0.8,0.2,0.8,0.7
			C181.7,51.7,181.6,51.9,181.5,52.1z"/>
		<path class="st0" d="M211.5,52c-3.5,4.2-6.6,6.6-9.4,7.3c-1.2,0.3-2.3,0.5-3.4,0.5c-1.5,0-2.8-0.3-3.9-1c-2.5,2.4-5.1,4.4-7.8,5.8
			c-2.7,1.5-5.2,2.2-7.3,2.2c-3.2,0-4.8-1.6-4.8-4.7c0-2.5,1.1-5.5,3.4-8.9c2.5-3.7,5.7-6.9,9.6-9.6c3.8-2.7,7.2-4,10.1-4
			c3.2,0,4.8,1.6,4.8,4.7c0,2.6-1.1,5.5-3.4,8.9c-1,1.4-2,2.7-3.2,4c0.9,0.6,1.9,0.8,2.8,0.8c0.8,0,1.8-0.2,2.8-0.5
			c2.5-0.8,5.2-2.9,8.2-6.5c0.3-0.3,0.6-0.5,0.9-0.5c0.5,0,0.7,0.2,0.7,0.6C211.7,51.6,211.6,51.8,211.5,52z M198.3,51.4
			c1.6-2.7,2.4-5,2.4-6.9c0-2-0.9-3-2.7-3c-1.9,0-4.3,1.1-7.2,3.3c-2.9,2.2-5.3,4.9-7.5,8c-2.2,3.3-3.4,6.1-3.4,8.4c0,2,0.9,3,2.7,3
			c2.9,0,6.4-2.1,10.5-6.3c-1.2-0.9-1.8-2-1.8-3.2c0-1,0.4-1.9,1.3-2.6c1-0.8,2.2-1.2,3.5-1.2C197.2,50.9,197.8,51,198.3,51.4z"/>
		<path class="st0" d="M255,52.2c-1.7,2.1-4.3,4.5-7.8,7.2c-5.7,4.4-9.7,6.6-11.9,6.6c-1.3,0-2.4-0.3-3.3-1c-1-0.7-1.5-1.7-1.6-2.9
			c-0.2-2.6,1.6-5.5,5.4-8.7c6.1-5.1,9.1-8.5,9.1-10.3c0-0.9-0.6-1.3-1.7-1.3c-1.3,0-3.3,0.9-5.9,2.6c-2.2,1.5-5.4,4.5-9.5,9.2
			c-1.3,1.4-3.2,3.8-5.9,7.3c-2.4,3.1-3.7,4.8-4,5c-0.3,0.3-1,0.5-2,0.8c-1,0.2-1.9,0.3-2.5,0.3c-0.4,0-0.6-0.2-0.6-0.4
			c-0.1-0.3,3.4-4.7,10.4-13.5c1.3-1.6,2.7-3.3,4.1-5c1.6-2.1,2.3-3.6,2.3-4.7c0-1-0.6-1.5-1.8-1.5c-1.9,0-4.7,1.5-8.4,4.5
			c-3.5,2.7-6.1,5.4-8,7.9c-2.8,3.9-5.7,7.9-8.8,11.9c-0.4,0.1-0.9,0-1.5-0.2s-0.9-0.5-0.9-0.7c0.1-0.7,3.1-5.1,9.1-13.2
			c5.3-7.2,8.2-11,8.7-11.4c0.2-0.2,0.8-0.3,1.6-0.3c0.9,0,1.3,0,1.4,0.3c-0.4,0.6-1.5,2.1-3.3,4.7c4.7-3.5,8.4-5.2,11-5.2
			c0.5,0,1,0,1.5,0.1c1.5,0.3,2.2,1.2,2.2,2.9c0,1.2-0.4,2.4-1.1,3.6c5.6-4.4,9.8-6.6,12.4-6.6c2.5,0,3.7,1.1,3.7,3.2
			c0,2-1,4.2-3.1,6.6c-5.3,6.1-8.1,10.2-8.5,12.5c0,0.4,0.1,0.7,0.3,0.9c0.3,0.2,0.7,0.3,1.3,0.2c1.6-0.2,4.3-1.8,8.1-4.7
			c3.1-2.5,5.9-5,8.3-7.5c0.3-0.4,0.7-0.6,1.1-0.6c0.3,0,0.5,0.2,0.6,0.5C255.5,51.5,255.3,51.8,255,52.2z"/>
		<path class="st0" d="M286.3,52.2c-1.9,2.3-4.8,4.9-8.7,7.9c-5.7,4.2-9.7,6.2-11.9,5.9c-2.3-0.3-3.5-1.6-3.5-4
			c0-0.6,0.1-1.1,0.3-1.8c-3.5,4-6.5,5.9-9,5.8c-2.7-0.1-4-1.8-4-4.9c0-2.9,1.4-6.2,4.1-9.7c2.8-3.5,6-6.4,9.8-8.7
			c3.5-2,6.5-3.1,8.9-3.1c1,0,1.9,0.2,2.5,0.7s0.8,1.2,0.7,2.2c1-1,1.6-1.6,1.8-1.8c0.2-0.2,0.5-0.3,0.9-0.3c0.4-0.1,0.8-0.1,1,0
			c0.3,0,0.3,0.2,0.2,0.4c-1.4,2-3.8,5.6-7.3,10.7c-3.1,4.8-4.7,8.2-5,10.2c-0.2,1.3,0.2,2,1.1,2c1.6,0,4.7-1.8,9.1-5.4
			c3.9-3.2,6.6-5.6,7.9-7.3c0.2-0.2,0.4-0.3,0.7-0.3c0.5,0,0.8,0.2,0.8,0.6C286.7,51.6,286.6,51.9,286.3,52.2z M273.2,45.3
			c0.5-0.6,0.8-1.4,0.8-2.3c0-1.3-0.6-2-1.9-2s-3,0.7-5.1,2c-2.2,1.4-4.4,3.3-6.5,5.7c-4.7,5.3-7,9.7-7,13.1c0,1.5,0.5,2.2,1.5,2.2
			c1.1,0,2.9-1.2,5.3-3.5c2-2,3.9-4,5.5-6.2C267.9,51.6,270.4,48.6,273.2,45.3z"/>
		<path class="st0" d="M384.3,18.3c0,0.5-0.2,0.8-0.5,0.8c-0.4,0-0.7-0.4-0.9-1.2c-0.2-0.8-0.7-1.4-1.8-1.9c-1-0.5-2.2-0.7-3.5-0.7
			c-0.5,0-1,0-1.4,0.1c-2.7,0.4-5.4,2.1-8,4.9c-1.3,1.4-2.8,3.5-4.4,6.2c-1.9,3.2-3.3,5.4-4.3,6.8c-2,2.5-4.4,4.7-7.3,6.6
			c-1,0.6-2.9,1.4-5.8,2.1c2.3,0.8,3.8,2,4.6,3.8c0.4,1,0.6,2,0.6,3.1c0,2.1-0.8,4.6-2.5,7.3c-1.1,1.7-1.6,3.5-1.6,5.3
			c0,1.3,0.4,2.3,1.1,3c0.5,0.4,1.1,0.7,1.9,0.7c2,0,3.7-1,5.2-3s2.2-4,2.2-5.9c0-1.3-0.3-2-1-2.1c-1.5-0.3-3,0.9-4.6,3.5
			c-0.3,0.6-0.7,0.8-1.1,0.8c-0.5,0-0.6-0.4-0.3-1.2c0.6-1.3,1.4-2.5,2.4-3.4c1.1-0.9,2.1-1.4,3.1-1.4c0.5,0,0.9,0.1,1.4,0.3
			c1,0.5,1.5,1.6,1.5,3.2c0,2.3-0.8,4.6-2.5,7c-0.9,1.3-2.2,2.4-4,3.4s-3.5,1.4-5.1,1.4c-1.3,0-2.4-0.3-3.2-1
			c-1.6-1.2-2.3-2.7-2.3-4.6c0-2.5,1-4.9,3.1-7.2c2.9-3.3,4.3-5.7,4.3-7.2s-0.7-2.7-2.1-3.6c-1.3-0.8-2.7-1.2-4.2-1.2
			c-0.6,0-1.3,0.1-1.9,0.3l-1.1,0.2c-1,0.2-2.2,0.7-3.4,1.4c-6.7,9.9-13.9,16.9-21.7,21.1c-7.2,3.9-13.8,5.9-19.7,5.9
			c-3.5,0-6.5-0.7-9-2.1c-2.1-1.2-3.6-2.6-4.4-4.2c-0.5-1.2-0.8-2.5-0.8-3.9c0-2,0.5-3.9,1.4-5.8s2-3.2,3.3-4
			c0.8-0.5,1.6-0.8,2.5-0.8c1.8,0,2.7,0.6,2.9,2c0.1,0.8-0.1,1.5-0.6,2.1s-1.1,0.9-1.9,0.9c-1,0-1.6-0.4-1.8-1.1
			c-0.1-0.4-0.3-0.6-0.5-0.7c-0.3,0-0.6,0.1-1,0.4s-0.8,1-1.2,2c-0.6,1.2-0.8,2.4-0.8,3.6c0,1,0.2,1.8,0.5,2.7
			c1.2,2.9,4.3,4.4,9.3,4.4c4.8,0,10.3-1.3,16.7-3.9c6.3-2.6,11.8-5.8,16.4-9.8c4.6-3.9,8.8-9,12.3-15.2c3.8-6.5,5.6-12.1,5.6-16.7
			c0-3.2-1-5.5-3-7c-2.1-1.6-4.7-2.3-7.8-2.3c-3.6,0-7.6,1-11.9,3.1c-3.8,1.8-7.1,4-9.8,6.6c-2.4,2.3-4.4,4.8-6,7.7
			c-1.8,3.2-2.7,6.1-2.7,8.7c0,1.8,0.4,3.4,1.2,4.7c1.4,2.2,3.7,3.3,6.7,3.3c3.9,0,7.8-1.3,11.9-4c2.2-1.5,4.1-3.5,5.7-6
			c1.2-2,2-3.7,2.3-5.3c0.1-0.8,0.5-1.2,1-1.2s0.7,0.3,0.6,1c-0.6,4.9-3.5,9.2-8.5,12.9c-3.8,2.9-8.4,4.3-13.7,4.3
			c-4.8,0-8.3-1.4-10.3-4.2c-1.3-1.8-1.9-3.9-1.9-6.3c0-3,1-6.1,2.9-9.5c1.9-3.3,4.6-6.4,8.1-9.2c3.1-2.5,6.8-4.5,11.2-6
			c4.2-1.4,8.3-2.1,12.2-2.1c4.4,0,7.9,1,10.2,2.9c2.2,1.7,3.2,4.3,3.2,7.7c0,4.5-1.8,10.2-5.4,17.2c-0.3,0.5-0.6,1-0.9,1.6
			c5.1,0.3,9-0.4,11.7-2.1c2.4-1.5,4.6-3.5,6.6-6c1.2-1.5,2.7-3.8,4.5-6.9c1.7-2.9,3.1-4.8,4-6c4.3-5,8.5-7.4,12.4-7.1
			c1.9,0.2,3.3,1,4.3,2.3C384.1,15.5,384.5,16.9,384.3,18.3z"/>
		<path class="st0" d="M399.2,52c-3.5,4.2-6.6,6.6-9.4,7.3c-1.2,0.3-2.3,0.5-3.4,0.5c-1.5,0-2.8-0.3-3.9-1c-2.5,2.4-5.1,4.4-7.8,5.8
			c-2.7,1.5-5.2,2.2-7.3,2.2c-3.2,0-4.8-1.6-4.8-4.7c0-2.5,1.1-5.5,3.4-8.9c2.5-3.7,5.7-6.9,9.6-9.6c3.8-2.7,7.2-4,10.1-4
			c3.2,0,4.8,1.6,4.8,4.7c0,2.6-1.1,5.5-3.4,8.9c-1,1.4-2,2.7-3.2,4c0.9,0.6,1.9,0.8,2.8,0.8c0.8,0,1.8-0.2,2.9-0.5
			c2.5-0.8,5.2-2.9,8.2-6.5c0.3-0.3,0.6-0.5,0.9-0.5c0.5,0,0.7,0.2,0.7,0.6C399.5,51.6,399.4,51.8,399.2,52z M386.1,51.4
			c1.6-2.7,2.4-5,2.4-6.9c0-2-0.9-3-2.7-3c-1.9,0-4.3,1.1-7.2,3.3c-2.9,2.2-5.3,4.9-7.5,8c-2.2,3.3-3.4,6.1-3.4,8.4c0,2,0.9,3,2.7,3
			c2.9,0,6.4-2.1,10.5-6.3c-1.2-0.9-1.8-2-1.8-3.2c0-1,0.4-1.9,1.3-2.6c1-0.8,2.2-1.2,3.5-1.2C384.9,50.9,385.6,51,386.1,51.4z"/>
	</g>
</g>
<g id="аромат_вашего_бизнеса">
	<g>
		<path class="st0" d="M93.4,87.8V101h-1.7v-2.3c-0.7,0.9-1.5,1.5-2.4,1.9s-1.8,0.7-2.9,0.7c-1.9,0-3.4-0.7-4.8-2
			c-1.3-1.3-2-3-2-4.9s0.7-3.5,2-4.9c1.3-1.3,2.9-2,4.8-2c1.1,0,2.1,0.2,2.9,0.7c0.9,0.5,1.6,1.1,2.3,2.1v-2.5H93.4z M86.7,89.1
			c-0.9,0-1.8,0.2-2.6,0.7c-0.8,0.5-1.4,1.1-1.9,2c-0.5,0.8-0.7,1.7-0.7,2.7c0,0.9,0.2,1.8,0.7,2.7c0.5,0.8,1.1,1.5,1.9,2
			s1.7,0.7,2.6,0.7s1.8-0.2,2.6-0.7c0.8-0.5,1.5-1.1,1.9-1.9s0.7-1.7,0.7-2.7c0-1.5-0.5-2.8-1.5-3.8C89.4,89.6,88.2,89.1,86.7,89.1z
			"/>
		<path class="st0" d="M97.3,87.8H99v2.4c0.7-0.9,1.4-1.6,2.3-2.1c0.9-0.5,1.8-0.7,2.9-0.7c1.9,0,3.5,0.7,4.8,2s2,3,2,4.9
			s-0.7,3.6-2,4.9c-1.3,1.4-2.9,2-4.7,2c-1,0-2-0.2-2.9-0.7c-0.9-0.4-1.7-1.1-2.4-1.9v7.1h-1.7L97.3,87.8L97.3,87.8z M104,89.1
			c-1.5,0-2.7,0.5-3.7,1.5s-1.5,2.3-1.5,3.8c0,1,0.2,1.9,0.7,2.7c0.4,0.8,1.1,1.4,1.9,1.9c0.8,0.5,1.7,0.7,2.6,0.7
			c0.9,0,1.8-0.2,2.6-0.7s1.4-1.1,1.9-2c0.5-0.8,0.7-1.7,0.7-2.7c0-0.9-0.2-1.8-0.7-2.7c-0.5-0.8-1.1-1.5-1.9-2
			C105.8,89.3,104.9,89.1,104,89.1z"/>
		<path class="st0" d="M120.3,87.5c2,0,3.7,0.7,5,2.2c1.2,1.3,1.8,2.9,1.8,4.8c0,1.8-0.6,3.4-1.9,4.8c-1.3,1.4-2.9,2.1-4.9,2.1
			s-3.7-0.7-4.9-2.1s-1.9-3-1.9-4.8s0.6-3.4,1.8-4.7C116.6,88.2,118.2,87.5,120.3,87.5z M120.3,89.1c-1.4,0-2.6,0.5-3.6,1.6
			c-1,1-1.5,2.3-1.5,3.8c0,1,0.2,1.8,0.7,2.7c0.5,0.8,1.1,1.5,1.9,1.9c0.8,0.4,1.6,0.7,2.6,0.7c0.9,0,1.8-0.2,2.6-0.7
			c0.8-0.4,1.4-1.1,1.9-1.9s0.7-1.7,0.7-2.7c0-1.5-0.5-2.7-1.5-3.8C122.9,89.7,121.7,89.1,120.3,89.1z"/>
		<path class="st0" d="M144.5,87.8h0.5l4.5,13.2h-1.8l-3.3-9.7l-5,9.7h-0.3l-5.1-9.7l-3.2,9.7H129l4.5-13.2h0.5l5.3,10.3L144.5,87.8
			z"/>
		<path class="st0" d="M165,87.8V101h-1.7v-2.3c-0.7,0.9-1.5,1.5-2.4,1.9s-1.8,0.7-2.9,0.7c-1.9,0-3.4-0.7-4.8-2c-1.3-1.3-2-3-2-4.9
			s0.7-3.5,2-4.9c1.3-1.3,2.9-2,4.8-2c1.1,0,2.1,0.2,2.9,0.7c0.9,0.5,1.6,1.1,2.3,2.1v-2.5H165z M158.2,89.1c-0.9,0-1.8,0.2-2.6,0.7
			s-1.4,1.1-1.9,2c-0.5,0.8-0.7,1.7-0.7,2.7c0,0.9,0.2,1.8,0.7,2.7c0.5,0.8,1.1,1.5,1.9,2c0.8,0.5,1.7,0.7,2.6,0.7
			c0.9,0,1.8-0.2,2.6-0.7s1.5-1.1,1.9-1.9s0.7-1.7,0.7-2.7c0-1.5-0.5-2.8-1.5-3.8C160.9,89.6,159.7,89.1,158.2,89.1z"/>
		<path class="st0" d="M167.3,87.8h8.6v1.5h-3.5V101h-1.7V89.3h-3.5L167.3,87.8L167.3,87.8z"/>
		<path class="st0" d="M188.9,101h-3.8V87.8h3.7c1.4,0,2.5,0.3,3.1,1s0.9,1.4,0.9,2.3c0,1.3-0.6,2.2-1.8,2.7
			c1.7,0.6,2.6,1.8,2.6,3.5C193.6,99.8,192,101,188.9,101z M186.7,89.3v4.1h1.1c1,0,1.7,0,2-0.1s0.6-0.3,0.9-0.6
			c0.3-0.3,0.4-0.7,0.4-1.3c0-0.5-0.1-1-0.4-1.4c-0.3-0.4-0.6-0.6-0.9-0.7c-0.3-0.1-0.9-0.1-1.9-0.1L186.7,89.3L186.7,89.3z
			 M186.7,94.9v4.6h1.8c0.9,0,1.5-0.1,1.8-0.2c0.4-0.1,0.7-0.3,0.9-0.7c0.3-0.4,0.4-0.8,0.4-1.4c0-0.7-0.2-1.3-0.7-1.7
			c-0.5-0.4-1-0.6-1.8-0.6C189.1,94.9,186.7,94.9,186.7,94.9z"/>
		<path class="st0" d="M209.7,87.8V101H208v-2.3c-0.7,0.9-1.5,1.5-2.4,1.9s-1.8,0.7-2.9,0.7c-1.9,0-3.4-0.7-4.8-2
			c-1.3-1.3-2-3-2-4.9s0.7-3.5,2-4.9c1.3-1.3,2.9-2,4.8-2c1.1,0,2.1,0.2,2.9,0.7c0.9,0.5,1.6,1.1,2.3,2.1v-2.5H209.7z M202.9,89.1
			c-0.9,0-1.8,0.2-2.6,0.7s-1.4,1.1-1.9,2c-0.5,0.8-0.7,1.7-0.7,2.7c0,0.9,0.2,1.8,0.7,2.7c0.5,0.8,1.1,1.5,1.9,2
			c0.8,0.5,1.7,0.7,2.6,0.7c0.9,0,1.8-0.2,2.6-0.7s1.5-1.1,1.9-1.9s0.7-1.7,0.7-2.7c0-1.5-0.5-2.8-1.5-3.8
			C205.6,89.6,204.4,89.1,202.9,89.1z"/>
		<path class="st0" d="M233,101h-19.6V87.8h1.7v11.6h7.2V87.8h1.7v11.6h7.2V87.8h1.7V101H233z"/>
		<path class="st0" d="M247.8,96.6l1.4,0.8c-0.5,0.9-1,1.7-1.6,2.2c-0.6,0.6-1.3,1-2.1,1.3c-0.8,0.3-1.6,0.4-2.6,0.4
			c-2.1,0-3.8-0.7-5-2.1s-1.8-3-1.8-4.8c0-1.7,0.5-3.2,1.5-4.5c1.3-1.7,3-2.5,5.2-2.5s4,0.8,5.4,2.6c0.9,1.2,1.4,2.7,1.4,4.5h-11.8
			c0,1.5,0.5,2.8,1.5,3.8c0.9,1,2.1,1.5,3.5,1.5c0.7,0,1.3-0.1,1.9-0.3c0.6-0.2,1.2-0.5,1.6-0.9C246.8,98.1,247.3,97.5,247.8,96.6z
			 M247.8,93.1c-0.2-0.9-0.6-1.6-1-2.2c-0.4-0.5-1-1-1.7-1.3s-1.5-0.5-2.2-0.5c-1.3,0-2.4,0.4-3.3,1.2c-0.7,0.6-1.2,1.5-1.5,2.7h9.7
			V93.1z"/>
		<path class="st0" d="M254.5,89.3V101h-1.7V87.8h6.6v1.5H254.5z"/>
		<path class="st0" d="M267.9,87.5c2,0,3.7,0.7,5,2.2c1.2,1.3,1.8,2.9,1.8,4.8c0,1.8-0.6,3.4-1.9,4.8s-2.9,2.1-4.9,2.1
			s-3.7-0.7-4.9-2.1c-1.3-1.4-1.9-3-1.9-4.8s0.6-3.4,1.8-4.7C264.2,88.2,265.9,87.5,267.9,87.5z M267.9,89.1c-1.4,0-2.6,0.5-3.6,1.6
			c-1,1-1.5,2.3-1.5,3.8c0,1,0.2,1.8,0.7,2.7c0.5,0.8,1.1,1.5,1.9,1.9s1.6,0.7,2.6,0.7c0.9,0,1.8-0.2,2.6-0.7
			c0.8-0.4,1.4-1.1,1.9-1.9s0.7-1.7,0.7-2.7c0-1.5-0.5-2.7-1.5-3.8C270.5,89.7,269.3,89.1,267.9,89.1z"/>
		<path class="st0" d="M297.3,82.5v1.6c-0.8,0.1-2.2,0.2-4.1,0.3c-1.4,0-2.5,0.1-3.3,0.3c-0.8,0.1-1.4,0.4-2,0.8s-1.1,1-1.4,1.8
			c-0.4,0.8-0.6,1.7-0.7,2.7l-0.2,1.8c0.5-1.5,1.2-2.6,2.3-3.3c1-0.7,2.2-1.1,3.5-1.1c1.9,0,3.6,0.7,4.9,2.1s2,3,2,4.9
			s-0.7,3.5-2,4.8c-1.3,1.4-2.9,2-4.9,2s-3.7-0.8-5.1-2.2c-1.4-1.5-2.1-3.9-2.1-7.1c0-2.2,0.3-4,0.8-5.1c0.5-1.2,1.1-2,1.8-2.5
			c0.7-0.5,1.5-0.9,2.6-1.2c1-0.3,3-0.5,5.9-0.5C295.9,82.6,296.7,82.6,297.3,82.5z M296.4,94.5c0-1.5-0.5-2.7-1.5-3.8
			c-1-1-2.2-1.6-3.6-1.6s-2.6,0.5-3.6,1.6c-1,1-1.5,2.3-1.5,3.8s0.5,2.7,1.5,3.7s2.2,1.5,3.7,1.5s2.7-0.5,3.7-1.5
			C295.9,97.2,296.4,95.9,296.4,94.5z"/>
		<path class="st0" d="M302.9,87.8v9.7l9.6-9.7h0.1V101h-1.7v-9.6l-9.6,9.6h-0.1V87.8H302.9z"/>
		<path class="st0" d="M318.6,93.3h0.9c0.6,0,1.1-0.2,1.5-0.6c0.5-0.4,0.7-0.9,0.7-1.6c0-0.6-0.2-1.1-0.6-1.5s-1-0.6-1.7-0.6
			c-0.9,0-1.8,0.4-2.7,1.1l-1-1.2c1.2-1,2.4-1.5,3.8-1.5c1.1,0,2,0.3,2.7,1s1.1,1.5,1.1,2.5c0,1.4-0.6,2.3-1.8,2.8
			c1.6,0.7,2.4,1.8,2.4,3.5c0,1-0.4,2-1.1,2.8s-1.8,1.3-3.3,1.3c-1.8,0-3.2-0.6-4.3-1.8l1.1-1.2c0.8,0.9,1.8,1.4,3.1,1.4
			c0.9,0,1.5-0.2,2-0.7s0.7-1.1,0.7-1.8c0-0.7-0.2-1.3-0.7-1.8c-0.5-0.4-1.1-0.7-1.7-0.7h-1v-1.4H318.6z"/>
		<path class="st0" d="M336.2,94.6h-7.6v6.3h-1.7V87.8h1.7V93h7.6v-5.2h1.7V101h-1.7V94.6z"/>
		<path class="st0" d="M352.7,96.6l1.4,0.8c-0.5,0.9-1,1.7-1.6,2.2c-0.6,0.6-1.3,1-2.1,1.3c-0.8,0.3-1.6,0.4-2.6,0.4
			c-2.1,0-3.8-0.7-5-2.1s-1.8-3-1.8-4.8c0-1.7,0.5-3.2,1.5-4.5c1.3-1.7,3-2.5,5.2-2.5s4,0.8,5.4,2.6c0.9,1.2,1.4,2.7,1.4,4.5h-11.8
			c0,1.5,0.5,2.8,1.5,3.8c0.9,1,2.1,1.5,3.5,1.5c0.7,0,1.3-0.1,1.9-0.3c0.6-0.2,1.2-0.5,1.6-0.9C351.7,98.1,352.2,97.5,352.7,96.6z
			 M352.7,93.1c-0.2-0.9-0.6-1.6-1-2.2c-0.4-0.5-1-1-1.7-1.3s-1.5-0.5-2.2-0.5c-1.3,0-2.4,0.4-3.3,1.2c-0.7,0.6-1.2,1.5-1.5,2.7h9.7
			V93.1z"/>
		<path class="st0" d="M370.4,90.6l-1.3,0.8c-1.2-1.5-2.7-2.3-4.7-2.3c-1.6,0-2.9,0.5-4,1.5s-1.6,2.3-1.6,3.8c0,1,0.2,1.9,0.7,2.7
			c0.5,0.8,1.2,1.5,2,2s1.8,0.7,2.8,0.7c1.9,0,3.5-0.8,4.7-2.3l1.3,0.9c-0.6,0.9-1.5,1.7-2.5,2.2c-1.1,0.5-2.3,0.8-3.6,0.8
			c-2.1,0-3.8-0.7-5.2-2c-1.4-1.3-2-2.9-2-4.8c0-1.3,0.3-2.5,1-3.5c0.6-1.1,1.5-1.9,2.6-2.6c1.1-0.6,2.4-0.9,3.7-0.9
			c0.9,0,1.7,0.1,2.5,0.4s1.5,0.6,2.1,1C369.5,89.3,370,89.9,370.4,90.6z"/>
		<path class="st0" d="M386.7,87.8V101H385v-2.3c-0.7,0.9-1.5,1.5-2.4,1.9s-1.8,0.7-2.9,0.7c-1.9,0-3.4-0.7-4.8-2
			c-1.3-1.3-2-3-2-4.9s0.7-3.5,2-4.9c1.3-1.3,2.9-2,4.8-2c1.1,0,2.1,0.2,2.9,0.7c0.9,0.5,1.6,1.1,2.3,2.1v-2.5H386.7z M380,89.1
			c-0.9,0-1.8,0.2-2.6,0.7c-0.8,0.5-1.4,1.1-1.9,2c-0.5,0.8-0.7,1.7-0.7,2.7c0,0.9,0.2,1.8,0.7,2.7c0.5,0.8,1.1,1.5,1.9,2
			s1.7,0.7,2.6,0.7s1.8-0.2,2.6-0.7c0.8-0.5,1.5-1.1,1.9-1.9s0.7-1.7,0.7-2.7c0-1.5-0.5-2.8-1.5-3.8C382.6,89.6,381.4,89.1,380,89.1
			z"/>
	</g>
</g>
<g id="Фигура_1_1_" class="st1">
	<g id="Фигура_1">
		<g>
			<path class="st2" d="M11.8,62.8c0-2.2,0.3-3.4,1.8-5.5c1.5-2.2,7.6-8.6,9.6-11.1c2-2.5,4.6-7.3,4.6-11.2s-1.8-6.8-3.2-8.3
				c-1.4-1.5-2.9-2.1-4.1-1.8c-1.2,0.2-1.5,0.4-1.5,3.5c0,6.7-1.8,6.4-5.9,10.7C9.2,43.3,0,49.5,0,60.6s11.8,16.6,11.8,16.6
				c3,0.6,3.4,0.2,3.8-0.5c0.5-0.8-0.8-4.5-1.7-6.8C12.9,67.4,11.8,65,11.8,62.8z M41.5,63.6c2.6-3.2,10.8-11.4,16.2-20.5
				c5.6-9,5.5-16.8,5.5-18.7c0-1.8,0.1-6.6-2.9-13.5c-3.9-8.2-8.8-10.7-9.2-10.9c-0.5-0.2-1.5-0.2-1.7,1.3c-0.2,1.5,1.2,5.1,1.8,7.4
				s1.8,6.5,1.8,11.6c0,5.2-2.1,10.7-5.4,15.5c-3.3,4.8-9.8,12.2-11.2,13.8c-1.5,1.7-7.1,7.9-11.8,15.5c-4.8,7.6-5.4,15.4-5.4,17.5
				s-0.2,8.1,4.1,15.3s8.7,9.1,8.7,9.1s1.3,0.2,1.3-1.5c0-2.4-3.8-10.5-3.8-18.6C29.5,76.3,38.9,66.8,41.5,63.6z M68.7,64.7
				c0-8.2-5.8-10.8-6.1-10.9c-0.2-0.1-2.6-1-2.6,3.7s-0.8,7.2-5.4,11.6c-4.5,4.5-13.1,11.8-13.1,20.8c0,12.1,10.9,16.2,10.9,16.2
				s3.4,0.9,3.3-1.3c0-4.8-2.6-7.8-2.6-12s2.2-6.1,6.5-10.7C64,77.6,68.7,71.7,68.7,64.7z"/>
		</g>
	</g>
</g>
</svg>
